<svg xmlns="http://www.w3.org/2000/svg" viewBox="0 0 512 512" role="img" aria-labelledby="title desc">
  <title id="title">Lost Apple logo</title>
  <desc id="desc">A red apple with a blue location signal and green leaf.</desc>
  <defs>
    <linearGradient id="apple" x1="142" x2="363" y1="142" y2="407" gradientUnits="userSpaceOnUse">
      <stop offset="0" stop-color="#ff5a5f" />
      <stop offset="1" stop-color="#c92132" />
    </linearGradient>
    <linearGradient id="signal" x1="247" x2="392" y1="116" y2="255" gradientUnits="userSpaceOnUse">
      <stop offset="0" stop-color="#2fb7ff" />
      <stop offset="1" stop-color="#1677d2" />
    </linearGradient>
    <filter id="soft-shadow" x="-20%" y="-20%" width="140%" height="140%">
      <feDropShadow dx="0" dy="14" stdDeviation="14" flood-color="#0f172a" flood-opacity="0.16" />
    </filter>
  </defs>

  <rect width="512" height="512" rx="104" fill="#f7fbff" />

  <g filter="url(#soft-shadow)">
    <path
      fill="url(#apple)"
      d="M250 182c19-28 52-43 91-33 50 13 86 63 82 124-7 108-92 167-129 167-15 0-25-8-42-8s-28 8-43 8c-38 0-124-61-130-169-3-61 34-110 84-122 37-9 69 6 87 33z"
    />
    <path
      fill="#8bc34a"
      d="M274 139c21-44 58-64 111-59-6 51-40 82-92 87-12 1-24-14-19-28z"
    />
    <path
      fill="#5a3728"
      d="M254 163c-10 0-18-8-18-18v-55c0-10 8-18 18-18s18 8 18 18v55c0 10-8 18-18 18z"
    />
  </g>

  <g fill="none" stroke="url(#signal)" stroke-linecap="round" stroke-linejoin="round">
    <path stroke-width="32" d="M255 254c0 36 47 76 47 76s47-40 47-76a47 47 0 0 0-94 0z" />
    <circle cx="302" cy="253" r="15" stroke-width="24" />
    <path stroke-width="26" d="M385 152c40 36 60 84 60 136" opacity="0.8" />
    <path stroke-width="22" d="M429 111c53 49 79 112 79 177" opacity="0.45" />
  </g>
</svg>
